# Wavefront Obj file
# 
# verts: 45 uv-s: 126
mtllib stadium.mtl

g pCube7
#pivot 0.000000 0.000000 0.000000

v -14.408294 0.135663 1.883107
v -14.402571 0.135663 -0.689778
v -18.377798 0.135663 1.874259
v -18.372065 0.135663 -0.698626
v -14.406872 0.135663 1.239541
v -18.376364 0.135663 1.230693
v -14.403962 0.135663 -0.060339
v -18.373466 0.135663 -0.069187
v -15.386633 0.135663 -0.691971
v -15.156994 0.135663 -0.062018
v -15.159904 0.135664 1.237862
v -15.392367 0.135663 1.880913
v -17.384243 0.135663 -0.696424
v -17.616665 0.135663 -0.067500
v -17.619585 0.135663 1.232380
v -17.389978 0.135663 1.876460
v -14.406872 0.997176 1.239541
v -14.403962 0.997176 -0.060339
v -15.161231 0.413821 -0.062027
v -15.164134 0.415333 1.237853
v -15.386481 0.997176 -0.759618
v -17.384094 0.997176 -0.764070
v -17.612436 0.413821 -0.067491
v -15.392323 0.807171 1.856092
v -17.615356 0.415334 1.232389
v -17.389948 0.807171 1.851640
v -18.373466 0.997176 -0.069187
v -18.376364 0.997176 1.230693
v -15.387534 1.175033 -0.287351
v -17.385143 1.175033 -0.291803
v -15.387559 1.246458 -0.281865
v -17.385159 1.246458 -0.286317
v -15.393225 0.851733 2.265409
v -17.390837 0.851733 2.260956
v -15.489877 0.135663 1.880696
v -15.494160 0.760952 1.880686
v -15.497137 0.783233 2.271991
v -17.282934 0.783233 2.268010
v -17.278784 0.135663 1.876708
v -15.490709 0.135663 2.253997
v -17.279615 0.135663 2.250009
v -17.390810 0.135663 2.249557
v -15.392274 0.136150 2.251797
v -14.409121 0.135663 2.251313
v -18.378628 0.135663 2.247151
# 45 positions

vt 0.087411 0.025090
vt 0.204413 0.024260
vt 0.205388 0.161163
vt 0.088685 0.203999
vt 0.021256 0.204312
vt 0.020470 0.025569
vt 0.975994 0.251985
vt 0.730021 0.251961
vt 0.730039 0.071078
vt 0.976012 0.071277
vt 0.337654 0.021766
vt 0.225489 0.022915
vt 0.227294 0.198943
vt 0.339036 0.156627
vt 0.917477 0.713218
vt 0.755431 0.673048
vt 0.754885 0.317060
vt 0.916808 0.276395
vt 0.355120 0.821847
vt 0.029685 0.825290
vt 0.023176 0.209489
vt 0.348612 0.206044
vt 0.755431 0.673048
vt 0.917477 0.713218
vt 0.916808 0.276395
vt 0.754885 0.317060
vt 0.339036 0.156627
vt 0.227294 0.198943
vt 0.225489 0.022915
vt 0.337654 0.021766
vt 0.976012 0.071277
vt 0.730039 0.071078
vt 0.730021 0.251961
vt 0.975994 0.251985
vt 0.088685 0.203999
vt 0.205388 0.161163
vt 0.204413 0.024260
vt 0.087411 0.025090
vt 0.020470 0.025569
vt 0.021256 0.204312
vt 0.715334 0.329566
vt 0.712012 0.124139
vt 0.575863 0.126341
vt 0.579185 0.331768
vt 0.710078 0.004537
vt 0.666109 0.004580
vt 0.717268 0.449164
vt 0.673081 0.450547
vt 0.366786 0.838473
vt 0.374070 0.735887
vt 0.506619 0.735488
vt 0.409365 0.841273
vt 0.373146 0.429486
vt 0.505695 0.429087
vt 0.365245 0.326946
vt 0.407806 0.323891
vt 0.264400 0.987590
vt 0.274552 0.882559
vt 0.551062 0.863755
vt 0.556972 0.960450
vt 0.710078 0.004537
vt 0.712012 0.124139
vt 0.575863 0.126341
vt 0.666109 0.004580
vt 0.715334 0.329566
vt 0.579185 0.331768
vt 0.717268 0.449164
vt 0.673081 0.450547
vt 0.592110 0.756978
vt 0.592110 0.456644
vt 0.602880 0.456646
vt 0.602880 0.756978
vt 0.516237 0.756978
vt 0.516236 0.456644
vt 0.560022 0.387891
vt 0.683899 0.456644
vt 0.683899 0.756978
vt 0.560008 0.825724
vt 0.120116 0.961202
vt 0.031601 0.881994
vt 0.039716 0.839427
vt 0.143675 0.859798
vt 0.692279 0.750936
vt 0.710262 0.744080
vt 0.973206 0.798359
vt 0.986412 0.811653
vt 0.706949 0.679431
vt 0.985429 0.740712
vt 0.973896 0.872278
vt 0.679761 0.811560
vt 0.425697 0.049853
vt 0.413827 0.107574
vt 0.396611 0.107574
vt 0.407245 0.046590
vt 0.445218 0.285074
vt 0.383409 0.304318
vt 0.383314 0.285074
vt 0.200423 0.870790
vt 0.217387 0.873789
vt 0.199416 0.972532
vt 0.181060 0.980038
vt 0.608789 0.860226
vt 0.617696 0.960199
vt 0.425697 0.165294
vt 0.407245 0.168556
vt 0.382646 0.225560
vt 0.444550 0.225560
vt 0.444455 0.244805
vt 0.634810 0.969139
vt 0.623975 0.858788
vt 0.681034 0.852011
vt 0.696986 0.954887
vt 0.786220 0.839427
vt 0.791147 0.882479
vt 0.548378 0.023267
vt 0.557519 0.332507
vt 0.492987 0.334414
vt 0.483846 0.025175
vt 0.730021 0.018438
vt 0.975994 0.018351
vt 0.967048 0.713897
vt 0.966375 0.275566
vt 0.975994 0.018351
vt 0.730021 0.018438
vt 0.966375 0.275566
vt 0.967048 0.713897
# 126 texture coordinates

vn 0.000124 1.000000 -0.000329
vn 0.000001 1.000000 0.000001
vn 0.000000 1.000000 0.000000
vn 0.000139 1.000000 -0.000369
vn -0.609764 0.792581 -0.001824
vn -0.609764 0.792581 -0.001824
vn -0.609765 0.792581 -0.001824
vn -0.609764 0.792581 -0.001824
vn 0.000000 1.000000 0.000000
vn 0.000000 1.000000 0.000000
vn 0.000000 1.000000 0.000000
vn -0.000000 1.000000 -0.000000
vn -0.001430 0.766894 0.641772
vn -0.001430 0.766894 0.641772
vn -0.001430 0.766894 0.641772
vn -0.001430 0.766894 0.641772
vn -0.000000 1.000000 -0.000000
vn -0.000000 1.000000 -0.000000
vn 0.001193 0.844841 -0.535016
vn 0.001193 0.844841 -0.535016
vn 0.001193 0.844841 -0.535016
vn 0.001193 0.844841 -0.535016
vn 0.000000 1.000000 0.000000
vn 0.000000 1.000000 0.000000
vn 0.000000 1.000000 0.000000
vn 0.607872 0.794035 0.000898
vn 0.607872 0.794035 0.000898
vn 0.607872 0.794035 0.000898
vn 0.607872 0.794035 0.000898
vn 0.000000 1.000000 0.000000
vn 0.000000 1.000000 0.000000
vn 0.000000 1.000000 0.000000
vn 0.999997 0.000000 0.002238
vn 0.999997 0.000000 0.002238
vn 0.999997 0.000000 0.002238
vn 0.999997 0.000000 0.002238
vn 0.002229 0.000000 -0.999997
vn 0.002229 0.000000 -0.999997
vn 0.002229 0.000000 -0.999997
vn 0.002229 0.000000 -0.999998
vn -0.002229 -0.000000 0.999998
vn -0.002229 -0.000000 0.999998
vn -0.002229 -0.000000 0.999997
vn -0.002229 -0.000000 0.999997
vn 0.943671 -0.016236 -0.330488
vn 0.943671 -0.016236 -0.330488
vn 0.943671 -0.016236 -0.330488
vn 0.943671 -0.016236 -0.330488
vn 0.002222 -0.078280 -0.996929
vn 0.002222 -0.078280 -0.996929
vn 0.002222 -0.078280 -0.996929
vn 0.002222 -0.078280 -0.996929
vn -0.942196 -0.016243 -0.334669
vn -0.942196 -0.016243 -0.334669
vn -0.942196 -0.016243 -0.334669
vn -0.942196 -0.016243 -0.334669
vn -0.008731 0.018557 0.999790
vn -0.008731 0.018557 0.999790
vn -0.008731 0.018557 0.999790
vn -0.008731 0.018557 0.999790
vn 0.002229 -0.000000 -0.999997
vn 0.002229 -0.000000 -0.999998
vn 0.002229 -0.000000 -0.999998
vn 0.002229 -0.000000 -0.999997
vn -0.999997 0.000000 -0.002229
vn -0.999997 0.000000 -0.002229
vn -0.999997 0.000000 -0.002229
vn -0.999997 0.000000 -0.002229
vn -0.002229 0.000000 0.999997
vn -0.002229 0.000000 0.999998
vn -0.002229 0.000000 0.999998
vn -0.002229 0.000000 0.999998
vn -0.002222 -0.076583 0.997061
vn -0.002222 -0.076583 0.997061
vn -0.002222 -0.076583 0.997061
vn -0.002222 -0.076583 0.997061
vn -0.000785 -0.935835 0.352436
vn -0.000785 -0.935836 0.352436
vn -0.000785 -0.935835 0.352436
vn -0.000785 -0.935836 0.352436
vn 0.999998 0.000181 0.002161
vn 0.999998 0.000181 0.002161
vn 0.999998 0.000181 0.002161
vn 0.001031 0.886570 -0.462593
vn 0.001031 0.886570 -0.462593
vn 0.001031 0.886570 -0.462593
vn 0.001031 0.886570 -0.462593
vn -0.999998 -0.000044 -0.002205
vn -0.999998 -0.000044 -0.002205
vn -0.999998 -0.000044 -0.002205
vn -0.942032 0.012964 0.335272
vn -0.942032 0.012964 0.335272
vn -0.942032 0.012964 0.335272
vn -0.942032 0.012964 0.335272
vn -0.002218 0.098978 0.995087
vn -0.002218 0.098978 0.995087
vn -0.002218 0.098978 0.995087
vn -0.002218 0.098978 0.995087
vn -0.012549 -0.999921 -0.000435
vn -0.012549 -0.999921 -0.000435
vn -0.012549 -0.999921 -0.000435
vn -0.012549 -0.999921 -0.000435
vn 0.000241 0.994126 -0.108229
vn 0.000241 0.994126 -0.108229
vn 0.000241 0.994126 -0.108229
vn 0.000241 0.994126 -0.108229
vn 0.494237 -0.866112 0.074705
vn 0.494237 -0.866112 0.074705
vn 0.494237 -0.866112 0.074705
vn 0.494237 -0.866112 0.074705
vn -0.537967 -0.838139 0.090080
vn -0.537967 -0.838139 0.090080
vn -0.537967 -0.838139 0.090080
vn -0.040986 -0.021637 0.998926
vn -0.040986 -0.021637 0.998925
vn -0.040986 -0.021637 0.998925
vn -0.040986 -0.021637 0.998925
vn -0.999954 -0.008347 -0.004739
vn -0.999954 -0.008347 -0.004739
vn -0.999954 -0.008347 -0.004739
vn -0.999954 -0.008347 -0.004739
vn -0.494237 0.866112 -0.074705
vn -0.494237 0.866112 -0.074705
vn -0.494237 0.866112 -0.074705
vn -0.494237 0.866112 -0.074705
vn 0.987828 0.085036 -0.130249
vn 0.987828 0.085036 -0.130249
vn 0.987828 0.085036 -0.130249
vn 0.987828 0.085036 -0.130249
vn 0.537967 0.838139 -0.090080
vn 0.537967 0.838139 -0.090080
vn 0.537967 0.838139 -0.090080
vn -0.999998 -0.000019 -0.002198
vn -0.999998 -0.000019 -0.002198
vn -0.999998 -0.000019 -0.002198
vn -0.999998 -0.000019 -0.002198
vn 0.833171 -0.012115 0.552883
vn 0.728154 -0.015223 0.685245
vn 0.999999 0.000662 0.000997
vn 0.999999 0.000662 0.000997
vn 0.940529 0.013000 0.339464
vn 0.940529 0.013000 0.339464
vn 0.940529 0.013000 0.339464
vn 0.940529 0.013000 0.339464
vn 0.051131 -0.022873 0.998430
vn 0.051131 -0.022873 0.998430
vn 0.000000 1.000000 0.000000
vn 0.000000 1.000000 0.000000
vn 0.000000 1.000000 0.000000
vn 0.000000 1.000000 0.000000
vn 0.000248 1.000000 -0.000659
vn 0.000248 1.000000 -0.000659
vn 0.000000 1.000000 0.000000
vn 0.000000 1.000000 0.000000
vn -0.999882 -0.015176 -0.002227
vn -0.999882 -0.015176 -0.002227
vn -0.999882 -0.015176 -0.002227
vn -0.999882 -0.015176 -0.002227
vn 0.002229 0.000000 -0.999997
vn 0.002229 0.000000 -0.999997
vn 0.002229 0.000000 -0.999998
vn 0.002229 0.000000 -0.999998
vn 0.999883 -0.015159 0.002255
vn 0.999883 -0.015159 0.002255
vn 0.999883 -0.015159 0.002255
vn 0.999883 -0.015159 0.002255
vn -0.002229 -0.000000 0.999997
vn -0.002229 -0.000000 0.999997
vn -0.002229 -0.000000 0.999998
vn -0.002229 -0.000000 0.999998
# 170 normals

usemtl initialShadingGroup
s 1
f 1/1/1 5/2/2 11/3/3 12/4/4
f 1/1/1 12/4/4 43/5/151 44/6/152
s 2
f 17/7/5 18/8/6 19/9/7 20/10/8
s 3
f 7/11/9 2/12/10 9/13/11 10/14/12
s 4
f 19/15/13 21/16/14 22/17/15 23/18/16
s 5
f 11/19/3 10/20/12 14/21/17 15/22/18
s 6
f 24/23/19 20/24/20 25/25/21 26/26/22
s 7
f 14/27/17 13/28/23 4/29/24 8/30/25
s 8
f 25/31/26 23/32/27 27/33/28 28/34/29
s 9
f 16/35/30 15/36/18 6/37/31 3/38/32
f 16/35/30 3/38/32 45/39/153 42/40/154
s 10
f 5/41/33 7/42/34 18/43/35 17/44/36
s 11
f 7/42/37 10/45/38 19/46/39 18/43/40
s 12
f 11/47/41 5/41/42 17/44/43 20/48/44
s 13
f 10/49/45 9/50/46 21/51/47 19/52/48
s 14
f 9/50/49 13/53/50 22/54/51 21/51/52
s 15
f 13/53/53 14/55/54 23/56/55 22/54/56
s 16
f 26/57/57 39/58/58 35/59/59 36/60/60
s 17
f 14/61/61 8/62/62 27/63/63 23/64/64
s 18
f 8/62/65 6/65/66 28/66/67 27/63/68
s 19
f 6/65/69 15/67/70 25/68/71 28/66/72
s 20
f 30/69/73 29/70/74 31/71/75 32/72/76
s 21
f 22/73/77 21/74/78 29/70/79 30/69/80
s 22
f 21/75/81 31/71/82 29/70/83
s 23
f 21/76/84 22/77/85 32/72/86 31/71/87
s 24
f 22/78/88 30/69/89 32/72/90
s 25
f 26/79/91 25/80/92 15/81/93 16/82/94
s 26
f 34/83/95 38/84/96 37/85/97 33/86/98
s 27
f 38/84/99 26/87/100 36/88/101 37/85/102
s 28
f 24/89/103 26/90/104 34/83/105 33/86/106
s 29
f 37/91/107 36/92/108 24/93/109 33/94/110
s 30
f 26/95/111 38/96/112 34/97/113
s 31
f 42/98/114 41/99/115 38/100/116 34/101/117
s 32
f 36/60/118 35/59/119 40/102/120 37/103/121
s 33
f 24/93/122 36/92/123 37/104/124 33/105/125
s 34
f 39/58/126 26/57/127 38/100/128 41/99/129
s 35
f 26/106/130 34/107/131 38/108/132
s 36
f 26/79/133 16/82/134 42/98/135 34/101/136
s 37
f 33/109/137 43/110/138 12/111/139 24/112/140
f 33/109/137 37/103/145 40/102/146 43/110/138
s 38
f 24/112/141 12/111/142 11/113/143 20/114/144
s 39
f 35/115/147 39/116/148 41/117/149 40/118/150
s 40
f 20/10/155 19/9/156 10/119/157 11/120/158
s 41
f 25/25/159 20/24/160 11/121/161 15/122/162
s 42
f 23/32/163 25/31/164 15/123/165 14/124/166
s 43
f 19/15/167 23/18/168 14/125/169 10/126/170

# 46 faces
